# xmcd
#
# Track frame offsets:
#	150
#	9000
#	21471
#	35148
#	49459
#	61079
#	73629
#	83718
#	91609
#	104713
#	115658
#	130250
#	135830
#	149894
#	165449
#	175828
#	186247
#	201558
#	212891
#	225473
#
# Disc length: 3165 seconds
#
# Revision: 2
# Processed by: cddbd v1.5.2PL0 Copyright (c) Steve Scherf et al.
# Submitted via: VUPlayer 2.49
#
DISCID=1c0c5b14
DTITLE=Various Artist - That's Country CD-4
DYEAR=2002
DGENRE=Country
TTITLE0=Johnny Paycheck - The Johnson's of Turkey Ridge
TTITLE1=Tanya Tucker - San Antonio Stroll
TTITLE2=Jackson Stonewall - Keep Off The Grass
TTITLE3=Eddie Raven - San Antonio Nights
TTITLE4=Bill Monroe - Nine Pound Hammer
TTITLE5=Willie Nelson - Any Old Arms Won't You
TTITLE6=Danny Davis and the Nashville Brass - Orange Blossom Special
TTITLE7=George Jones - Yes, I Know Why
TTITLE8=Don Williams - Where Are You
TTITLE9=Patsy Cline - I Can't Forget You
TTITLE10=The Osmond Brothers - Yes Ma'am
TTITLE11=Rex Allen Senior - Cool Water
TTITLE12=Freddy Fender - La Bamba
TTITLE13=Tanya Tucker - You Are So Beautiful To Me
TTITLE14=Mickey Gilley - Diggie Liggie Lo
TTITLE15=Tammy Wynette - Another Chance
TTITLE16=Tina Turner - If This Was Our Last Time
TTITLE17=Barbara Mandrell - Playing Around with Love
TTITLE18=Freddy Fender - Enter My Heart
TTITLE19=Johnny Cash - I Walk the Line
EXTD=Disk 4 of 5
EXTT0=
EXTT1=
EXTT2=
EXTT3=
EXTT4=
EXTT5=
EXTT6=
EXTT7=
EXTT8=
EXTT9=
EXTT10=
EXTT11=
EXTT12=
EXTT13=
EXTT14=
EXTT15=
EXTT16=
EXTT17=
EXTT18=
EXTT19=
PLAYORDER=
